<svg width="18" height="18" viewBox="0 0 18 18" fill="none" xmlns="http://www.w3.org/2000/svg">
<g clip-path="url(#clip0_582_338)">
<path d="M9.75 10.4999V14.9999C9.75 15.4124 10.0875 15.7499 10.5 15.7499H15C15.4125 15.7499 15.75 15.4124 15.75 14.9999V10.4999C15.75 10.0874 15.4125 9.74994 15 9.74994H10.5C10.0875 9.74994 9.75 10.0874 9.75 10.4999ZM3 15.7499H7.5C7.9125 15.7499 8.25 15.4124 8.25 14.9999V10.4999C8.25 10.0874 7.9125 9.74994 7.5 9.74994H3C2.5875 9.74994 2.25 10.0874 2.25 10.4999V14.9999C2.25 15.4124 2.5875 15.7499 3 15.7499ZM2.25 2.99994V7.49994C2.25 7.91244 2.5875 8.24994 3 8.24994H7.5C7.9125 8.24994 8.25 7.91244 8.25 7.49994V2.99994C8.25 2.58744 7.9125 2.24994 7.5 2.24994H3C2.5875 2.24994 2.25 2.58744 2.25 2.99994ZM11.9625 1.79994L8.775 4.97994C8.4825 5.27244 8.4825 5.74494 8.775 6.03744L11.9625 9.22494C12.255 9.51744 12.7275 9.51744 13.02 9.22494L16.2075 6.03744C16.5 5.74494 16.5 5.27244 16.2075 4.97994L13.0275 1.79994C12.735 1.50744 12.255 1.50744 11.9625 1.79994Z" fill="#47A1F6"/>
</g>
<defs>
<clipPath id="clip0_582_338">
<rect width="18" height="18" fill="white"/>
</clipPath>
</defs>
</svg>
