<svg width="45" height="44" viewBox="0 0 45 44" fill="none" xmlns="http://www.w3.org/2000/svg">
<circle cx="22.3335" cy="22" r="22" fill="#47A1F6"/>
<path d="M22.6838 29L17.5438 15.66H13.9838L8.82383 29H12.0638L12.9038 26.74H18.6238L19.4438 29H22.6838ZM17.8438 24.24H13.6838L15.7638 18.5L17.8438 24.24ZM26.7557 29V24.26H30.1557C33.0357 24.26 34.6357 22.28 34.6357 19.96C34.6357 17.62 33.0557 15.66 30.1557 15.66H23.9157V29H26.7557ZM29.7757 21.76H26.7557V18.16H29.7757C30.8957 18.16 31.7357 18.84 31.7357 19.96C31.7357 21.06 30.8957 21.76 29.7757 21.76Z" fill="white"/>
</svg>
