<svg width="21" height="20" viewBox="0 0 21 20" fill="none" xmlns="http://www.w3.org/2000/svg">
<g clip-path="url(#clip0_582_421)">
<path d="M10.4913 1.66675C5.66125 1.66675 1.75 5.40008 1.75 10.0001C1.75 14.6001 5.66125 18.3334 10.4913 18.3334C15.33 18.3334 19.25 14.6001 19.25 10.0001C19.25 5.40008 15.33 1.66675 10.4913 1.66675ZM10.5 16.6667C6.6325 16.6667 3.5 13.6834 3.5 10.0001C3.5 6.31675 6.6325 3.33341 10.5 3.33341C14.3675 3.33341 17.5 6.31675 17.5 10.0001C17.5 13.6834 14.3675 16.6667 10.5 16.6667ZM10.9375 5.83342H9.625V10.8334L14.2188 13.4584L14.875 12.4334L10.9375 10.2084V5.83342Z" fill="black"/>
</g>
<defs>
<clipPath id="clip0_582_421">
<rect width="21" height="20" fill="white"/>
</clipPath>
</defs>
</svg>
